# xmcd CD database file
#
# Track frame offsets:
#	150
#	17961
#	41333
#	57513
#	77724
#	92724
#	116584
#	135493
#	156463
#	173451
#	196361
#	213716
#	234774
#	253723
#	276427
#	288839
#	306835
#	323645
#
# Disc length: 4624 seconds
#
# Revision: 0
# Processed by: cddbd v1.5.1PL0 Copyright (c) Steve Scherf et al.
# Submitted via: cdripper 1,0,33,711
#
DISCID=fb120e12
DTITLE=Paul Asaro and Neville Dickie - Just You, Just Me
DYEAR=2005
DGENRE=Jazz
TTITLE0=Just You, Just Me
TTITLE1=Wolverine Blues
TTITLE2=Alligator Crawl
TTITLE3=Smashing Thirds
TTITLE4=Anitra's Dance
TTITLE5=Tishomingo Blues
TTITLE6=High Society
TTITLE7=Finger Buster
TTITLE8=All By Myself
TTITLE9=Blueberry Rhyme
TTITLE10=Kansas City Stomp
TTITLE11=After You've Gone
TTITLE12=If I Could Be With You (one hour tonight)
TTITLE13=Wrap Your Troubles in Dreams (and dream your troubles away)
TTITLE14=I Wish I Were Twins (so I could love you twice as much)
TTITLE15=Doin' the New Low-Down
TTITLE16=Squeeze Me
TTITLE17=Tiger Rag
EXTD=YEAR: 2005
EXTT0=
EXTT1=
EXTT2=
EXTT3=
EXTT4=
EXTT5=
EXTT6=
EXTT7=
EXTT8=
EXTT9=
EXTT10=
EXTT11=
EXTT12=
EXTT13=
EXTT14=
EXTT15=
EXTT16=
EXTT17=
PLAYORDER=
